# AST/ASF file generated using VICON BodyLanguage
# -----------------------------------------------
:version 1.10
:name VICON
:units
  mass 1.0
  length 0.45
  angle deg
:documentation
   .ast/.asf automatically generated from VICON data using
   VICON BodyBuilder and BodyLanguage model FoxedUp or BRILLIANT.MOD
:root
   order TX TY TZ RX RY RZ
   axis XYZ
   position 0 0 0  
   orientation 0 0 0 
:bonedata
  begin
     id 1 
     name lhipjoint
     direction 0.635376 -0.686425 0.353719 
     length 2.47244 
     axis 0 0 0  XYZ
  end
  begin
     id 2 
     name lfemur
     direction 0.34202 -0.939693 0  
     length 7.25268  
     axis 0 0 20  XYZ
    dof rx ry rz
    limits (-160.0 20.0)
           (-70.0 70.0)
           (-60.0 70.0)
  end
  begin
     id 3 
     name ltibia
     direction 0.34202 -0.939693 0   
     length 7.6767   
     axis 0 0 20   XYZ
    dof rx
    limits (-10.0 170.0)
  end
  begin
     id 4 
     name lfoot
     direction 0.0803374 -0.220725 0.972022   
     length 2.22945   
     axis -90 7.62852e-016 20   XYZ
    dof rx rz
    limits (-45.0 90.0)
           (-70.0 20.0)
  end
  begin
     id 5 
     name ltoes
     direction 1.53579e-011 -4.21994e-011 1   
     length 1.11848   
     axis -90 7.62852e-016 20   XYZ
    dof rx
    limits (-90.0 20.0)
  end
  begin
     id 6 
     name rhipjoint
     direction -0.664428 -0.664335 0.342336   
     length 2.55466  
     axis 0 0 0  XYZ 
  end
  begin
     id 7 
     name rfemur
     direction -0.34202 -0.939693 0   
     length 6.83172   
     axis 0 0 -20   XYZ
    dof rx ry rz
    limits (-160.0 20.0)
           (-70.0 70.0)
           (-70.0 60.0)
  end
  begin
     id 8 
     name rtibia
     direction -0.34202 -0.939693 0   
     length 7.62692   
     axis 0 0 -20   XYZ
    dof rx
    limits (-10.0 170.0)
 end
 begin
     id 9 
     name rfoot
     direction -0.0949276 -0.260811 0.960711   
     length 2.19684  
     axis -90 -7.62852e-016 -20   XYZ
    dof rx rz
    limits (-45.0 90.0)
           (-20.0 70.0)
  end
  begin
     id 10 
     name rtoes
     direction -1.53543e-011 -4.2183e-011 1   
     length 1.09848   
     axis -90 -7.62852e-016 -20   XYZ
    dof rx
    limits (-90.0 20.0)
  end
  begin
     id 11 
     name lowerback
     direction 0.0118782 0.999815 -0.0151555   
     length 2.15772   
     axis 0 0 0   XYZ
    dof rx ry rz
    limits (-20.0 45.0)
           (-30.0 30.0)
           (-30.0 30.0)
  end
  begin
     id 12 
     name upperback
     direction 0.00130825 0.999065 0.0432113   
     length 2.14863   
     axis 0 0 0   XYZ
    dof rx ry rz
    limits (-20.0 45.0)
           (-30.0 30.0)
           (-30.0 30.0)
  end
  begin
     id 13 
     name thorax
     direction -0.00347005 0.998773 0.0494011   
     length 2.14936   
     axis 0 0 0   XYZ
    dof rx ry rz
    limits (-20.0 45.0)
           (-30.0 30.0)
           (-30.0 30.0)
  end
  begin
     id 14 
     name lowerneck
     direction -0.0262159 0.99424 0.103921   
     length 1.69373   
     axis 0 0 0   XYZ
    dof rx ry rz
    limits (-20.0 45.0)
           (-30.0 30.0)
           (-30.0 30.0)
  end
  begin
     id 15 
     name upperneck
     direction 0.0353511 0.977394 -0.20845   
     length 1.70857   
     axis 0 0 0   XYZ
    dof rx ry rz
    limits (-20.0 45.0)
           (-30.0 30.0)
           (-30.0 30.0)
  end
  begin
     id 16
     name head
     direction 0.0139214 0.996594 -0.0812836  
     length 1.72777  
     axis 0 0 0   XYZ
    dof rx ry rz
    limits (-20.0 45.0)
           (-30.0 30.0)
           (-30.0 30.0)
  end
  begin
     id 17 
     name lclavicle
     direction 0.841247 0.537205 -0.0609508  
     length 3.55371  
     axis 0 0 0   XYZ
    dof ry rz
    limits (-20.0 10.0)
           (0.0 20.0)
  end
  begin
     id 18 
     name lhumerus
     direction 1 -4.48964e-011 1.60116e-018   
     length 4.91377   
     axis -180 -30 -90   XYZ
    dof rx ry rz
    limits (-60.0 90.0)
           (-90.0 90.0)
           (-90.0 90.0)
  end
  begin
     id 19
     name lradius
     direction 1 -4.48989e-011 -8.93847e-027   
     length 3.00291   
     axis -180 -30 -90   XYZ
    dof rx
    limits (-10.0 170.0)
  end
  begin
     id 20
     name lwrist
     direction 1 -4.48932e-011 -7.31504e-027   
     length 1.50145   
     axis 5.74121e-015 90 90   XYZ
    dof ry
    limits (-180.0 0.0)
 end
  begin
     id 21 
     name lhand
     direction 1 -4.48971e-011 -1.46301e-026   
     length 0.450922   
     axis 9.33524e-015 90 90   XYZ
    dof rx rz
    limits (-90.0 90.0)
           (-45.0 45.0)
  end
  begin
     id 22 
     name lfingers
     direction 1 -4.49039e-011 -2.92602e-026   
     length 0.363545   
     axis 1.86705e-014 90 90   XYZ
    dof rx
    limits (0.0 90.0)
  end
  begin
     id 23
     name lthumb
     direction 0.707107 -6.34941e-011 0.707107   
     length 0.52198   
     axis -90 45 2.85299e-015   XYZ
    dof rx rz
    limits (-45.0 45.0)
           (-45.0 45.0)
  end
  begin
     id 24 
     name rclavicle
     direction -0.825079 0.56158 -0.0622297   
     length 3.39909  
     axis 0 0 0   XYZ 
    dof ry rz
    limits (-10.0 20.0)
           (-20.0 0.0)
  end
  begin
     id 25 
     name rhumerus
     direction -1 -4.48965e-011 1.61691e-027  
     length 4.86725   
     axis -180 30 90   XYZ
    dof rx ry rz
    limits (-90.0 60.0)
           (-90.0 90.0)
           (-90.0 90.0)
  end
  begin
     id 26 
     name rradius
     direction -1 -4.48964e-011 -2.25776e-027   
     length 3.17144   
     axis -180 30 90   XYZ
    dof rx
    limits (-10.0 170.0)
  end
  begin
     id 27 
     name rwrist
     direction -1 -4.48961e-011 -7.31504e-027   
     length 1.58572   
     axis 5.74121e-015 -90 -90   XYZ
    dof ry
    limits (-180.0 0.0)
  end
  begin
     id 28
     name rhand
     direction -1 -4.49013e-011 -1.46301e-026   
     length 0.419368   
     axis 9.33524e-015 -90 -90   XYZ
    dof rx rz
    limits (-90.0 90.0)
           (-45.0 45.0)
  end
  begin
     id 29
     name rfingers
     direction -1 -4.489e-011 -2.92602e-026   
     length 0.338105   
     axis 1.86705e-014 -90 -90   XYZ
    dof rx
    limits (0.0 90.0)
  end
  begin
     id 30
     name rthumb
     direction -0.707107 -6.35022e-011 0.707107   
     length 0.485453   
     axis -90 -45 -2.85299e-015   XYZ
    dof rx rz
    limits (-45.0 45.0)
           (-45.0 45.0)
  end
:hierarchy
  begin
    root lhipjoint rhipjoint lowerback
    lhipjoint lfemur
    lfemur ltibia
    ltibia lfoot
    lfoot ltoes
    rhipjoint rfemur
    rfemur rtibia
    rtibia rfoot
    rfoot rtoes
    lowerback upperback
    upperback thorax
    thorax lowerneck lclavicle rclavicle
    lowerneck upperneck
    upperneck head
    lclavicle lhumerus
    lhumerus lradius
    lradius lwrist
    lwrist lhand lthumb
    lhand lfingers
    rclavicle rhumerus
    rhumerus rradius
    rradius rwrist
    rwrist rhand rthumb
    rhand rfingers
  end

#!OML:ASF H:\Swim 2\Project 1\Capture day 1\Session 1\male.ASF
:FULLY-SPECIFIED
:DEGREES
915
root 8.18454 9.86341 11.9689 95.175 1.96972 -6.67295
lowerback -1.24607 -3.27434 -2.95662
upperback -5.54679 -4.47599 1.45442
thorax -4.69989 -2.11233 3.27612
lowerneck -12.0936 4.54829 2.99699
upperneck 10.8226 5.12658 3.40185
head 5.23037 2.84995 0.986495
rclavicle -5.725e-014 -2.70347e-014
rhumerus 77.372 -35.9665 -21.176
rradius 32.9743
rwrist -13.4544
rhand -8.53671 5.27387
rfingers 7.12502
rthumb 17.3924 -23.968
lclavicle -5.725e-014 -2.70347e-014
lhumerus 10.438 -10.5214 -1.54981
lradius 47.8325
lwrist 26.1715
lhand -39.3015 -11.4121
lfingers 7.12502
lthumb -12.2943 18.2065
rfemur -32.2975 10.5107 20.5147
rtibia 23.5503
rfoot 38.2828 4.88433
rtoes 18.0392
lfemur -28.9709 -5.21702 -20.4378
ltibia 32.4838
lfoot 0.0877757 16.5151
ltoes 11.8707
916
root 8.17212 9.86969 11.998 95.3373 1.93207 -6.42996
lowerback -1.27684 -3.01936 -2.96752
upperback -5.7121 -4.13109 1.44688
thorax -4.88242 -1.93143 3.27363
lowerneck -11.4496 4.42998 3.2116
upperneck 10.8014 4.97793 3.23385
head 5.12752 2.7686 0.871572
rclavicle -1.27222e-014 1.90833e-014
rhumerus 78.9729 -35.4946 -22.4956
rradius 32.324
rwrist -11.6599
rhand -9.13077 5.41082
rfingers 7.12502
rthumb 16.8206 -23.8806
lclavicle -1.27222e-014 1.90833e-014
lhumerus 9.06015 -12.4597 0.256262
lradius 49.969
lwrist 27.4893
lhand -39.4484 -11.3026
lfingers 7.12502
lthumb -12.436 18.3074
rfemur -32.9192 10.6786 20.192
rtibia 22.8054
rfoot 38.1135 4.75551
rtoes 18.0493
lfemur -28.0877 -4.72692 -20.8772
ltibia 32.6525
lfoot 0.459288 15.8913
ltoes 11.1914
917
root 8.15916 9.87647 12.0258 95.456 1.87365 -6.14571
lowerback -1.27091 -2.72261 -3.06129
upperback -5.87836 -3.7308 1.43705
thorax -5.08698 -1.71763 3.31481
lowerneck -10.851 4.27511 3.5074
upperneck 10.8539 4.77478 2.98826
head 5.05857 2.66059 0.719022
rclavicle 2.54444e-014 -9.34288e-015
rhumerus 80.3344 -35.0274 -23.6519
rradius 31.7701
rwrist -10.197
rhand -9.80464 5.5197
rfingers 7.12502
rthumb 16.1718 -23.8257
lclavicle 2.54444e-014 -9.34288e-015
lhumerus 7.79347 -14.4294 2.25356
lradius 52.0888
lwrist 28.8654
lhand -39.6478 -11.2459
lfingers 7.12502
lthumb -12.6283 18.3523
rfemur -33.4303 10.772 19.8766
rtibia 22.1232
rfoot 37.9901 4.59164
rtoes 18.2121
lfemur -27.205 -4.21632 -21.322
ltibia 32.885
lfoot 0.573269 15.3823
ltoes 9.23068
918
root 8.14548 9.88321 12.0509 95.5332 1.80843 -5.82011
lowerback -1.22885 -2.40673 -3.19536
upperback -6.03627 -3.3054 1.42454
thorax -5.30523 -1.48831 3.37505
lowerneck -10.3354 4.09216 3.83639
upperneck 10.9836 4.53232 2.69205
head 5.02799 2.53391 0.546747
rclavicle 4.77083e-015 1.47101e-014
rhumerus 81.5646 -34.5338 -24.7713
rradius 31.2831
rwrist -9.02916
rhand -10.5821 5.59587
rfingers 7.12502
rthumb 15.423 -23.8088
lclavicle 4.77083e-015 1.47101e-014
lhumerus 6.55145 -16.4163 4.41305
lradius 54.1519
lwrist 30.1535
lhand -39.8933 -11.3295
lfingers 7.12502
lthumb -12.8649 18.254
rfemur -33.8176 10.8019 19.5851
rtibia 21.5208
rfoot 37.897 4.36426
rtoes 18.5949
lfemur -26.3592 -3.69811 -21.7484
ltibia 33.227
lfoot 0.610467 14.8638
ltoes 7.0569
919
root 8.13091 9.88949 12.0722 95.5747 1.74431 -5.45943
lowerback -1.16121 -2.08277 -3.35191
upperback -6.18461 -2.86953 1.412
thorax -5.53038 -1.25181 3.44628
lowerneck -9.91299 3.8694 4.14883
upperneck 11.1693 4.23349 2.42007
head 5.02733 2.38307 0.384001
rclavicle 4.6118e-014 1.98785e-016
rhumerus 82.6764 -34.0108 -25.8452
rradius 30.8455
rwrist -8.14299
rhand -11.4311 5.65912
rfingers 7.12502
rthumb 14.6052 -23.8066
lclavicle 4.6118e-014 1.98785e-016
lhumerus 5.27777 -18.4235 6.73058
lradius 56.1049
lwrist 31.2102
lhand -40.1824 -11.6233
lfingers 7.12502
lthumb -13.1436 17.9424
rfemur -34.0699 10.7802 19.327
rtibia 21.0065
rfoot 37.8088 4.01772
rtoes 18.9245
lfemur -25.5853 -3.15785 -22.1441
ltibia 33.7102
lfoot 0.64934 14.2524
ltoes 5.05399
920
root 8.11538 9.8952 12.0913 95.59 1.69321 -5.0709
lowerback -1.08048 -1.77139 -3.50878
upperback -6.31867 -2.45058 1.40471
thorax -5.74908 -1.02345 3.52139
lowerneck -9.58539 3.63227 4.40264
upperneck 11.4351 3.91434 2.19264
head 5.06302 2.22537 0.246266
rclavicle 1.90833e-014 -2.78299e-015
rhumerus 83.7224 -33.457 -26.8964
rradius 30.424
rwrist -7.48117
rhand -12.3279 5.72184
rfingers 7.12502
rthumb 13.741 -23.8044
lclavicle 1.90833e-014 -2.78299e-015
lhumerus 3.89881 -20.4308 9.18332
lradius 57.8907
lwrist 31.9128
lhand -40.5235 -12.162
lfingers 7.12502
lthumb -13.4724 17.3823
rfemur -34.1964 10.6863 19.137
rtibia 20.5841
rfoot 37.7088 3.63939
rtoes 18.7877
lfemur -24.9113 -2.60192 -22.489
ltibia 34.3464
lfoot 0.756777 13.4938
ltoes 3.58221
921
root 8.09891 9.9002 12.1079 95.5894 1.66994 -4.65854
lowerback -0.997287 -1.49836 -3.61256
upperback -6.42578 -2.08245 1.39711
thorax -5.94016 -0.824355 3.56514
lowerneck -9.37486 3.40618 4.55639
upperneck 11.7555 3.60905 2.04316
head 5.1303 2.07745 0.152584
rclavicle 3.18055e-015 -1.59028e-015
rhumerus 84.8056 -32.8813 -28.0226
rradius 29.9709
rwrist -6.91492
rhand -13.2226 5.80504
rfingers 7.12502
rthumb 12.8786 -23.7776
lclavicle 3.18055e-015 -1.59028e-015
lhumerus 2.32984 -22.3662 11.7563
lradius 59.4622
lwrist 32.1542
lhand -40.8654 -12.8926
lfingers 7.12502
lthumb -13.8019 16.6295
rfemur -34.1976 10.4981 19.0489
rtibia 20.25
rfoot 37.5815 3.23668
rtoes 18.684
lfemur -24.3644 -2.04588 -22.7611
ltibia 35.1328
lfoot 0.972176 12.5774
ltoes 2.74597
922
root 8.08144 9.90432 12.1222 95.5881 1.68031 -4.22505
lowerback -0.931622 -1.28208 -3.62706
upperback -6.49004 -1.78867 1.386
thorax -6.07226 -0.669943 3.55438
lowerneck -9.30025 3.22201 4.60299
upperneck 12.0717 3.365 1.92916
head 5.21615 1.95812 0.0937138
rclavicle 1.11319e-014 -7.95139e-016
rhumerus 86.037 -32.2938 -29.3284
rradius 29.4451
rwrist -6.27451
rhand -14.05 5.91607
rfingers 7.12502
rthumb 12.0809 -23.7152
lclavicle 1.11319e-014 -7.95139e-016
lhumerus 0.517588 -24.1714 14.4213
lradius 60.7979
lwrist 31.9186
lhand -41.1875 -13.7052
lfingers 7.12502
lthumb -14.1123 15.7956
rfemur -34.0888 10.2034 19.0778
rtibia 20.005
rfoot 37.4212 2.84799
rtoes 18.6031
lfemur -23.967 -1.51982 -22.9502
ltibia 36.0463
lfoot 1.3513 11.4889
ltoes 2.8906
923
root 8.06307 9.9074 12.1339 95.6038 1.72585 -3.77431
lowerback -0.911819 -1.10375 -3.55969
upperback -6.50399 -1.54278 1.36461
thorax -6.12166 -0.547503 3.48523
lowerneck -9.39888 3.06263 4.57087
upperneck 12.4089 3.15131 1.85339
head 5.33574 1.85404 0.0643162
rclavicle -1.98785e-014 -7.15625e-015
rhumerus 87.3543 -31.756 -30.7317
rradius 28.855
rwrist -5.48194
rhand -14.7733 6.02433
rfingers 7.12502
rthumb 11.3834 -23.6467
lclavicle -1.98785e-014 -7.15625e-015
lhumerus -1.4647 -25.7658 17.2035
lradius 61.857
lwrist 31.1902
lhand -41.4952 -14.5044
lfingers 7.12502
lthumb -14.4088 14.9755
rfemur -33.8923 9.81147 19.2179
rtibia 19.8471
rfoot 37.2437 2.50414
rtoes 18.569
lfemur -23.7416 -1.05136 -23.0538
ltibia 37.0542
lfoot 1.76878 10.3509
ltoes 3.19246
924
root 8.04375 9.90938 12.1429 95.6531 1.80935 -3.30964
lowerback -0.959827 -0.941409 -3.42374
upperback -6.46544 -1.3144 1.33278
thorax -6.07476 -0.441136 3.36425
lowerneck -9.68521 2.91012 4.47814
upperneck 12.7678 2.94176 1.80884
head 5.49255 1.75272 0.0572625
rclavicle -9.54166e-015 7.7526e-015
rhumerus 88.7046 -31.3154 -32.1615
rradius 28.217
rwrist -4.46509
rhand -15.3639 6.10916
rfingers 7.12502
rthumb 10.8137 -23.5925
lclavicle -9.54166e-015 7.7526e-015
lhumerus -3.53319 -27.1317 20.0936
lradius 62.6271
lwrist 30.0583
lhand -41.7958 -15.1897
lfingers 7.12502
lthumb -14.6984 14.2693
rfemur -33.6415 9.37152 19.4435
rtibia 19.787
rfoot 37.0575 2.24639
rtoes 18.5576
lfemur -23.7029 -0.668475 -23.0701
ltibia 38.1085
lfoot 2.20545 9.21344
ltoes 3.6701
925
root 8.02347 9.91019 12.1486 95.7436 1.92355 -2.83847
lowerback -1.11295 -0.693314 -3.31176
upperback -6.37801 -0.966145 1.27208
thorax -5.92402 -0.276106 3.21939
lowerneck -10.2291 2.67238 4.47265
upperneck 13.3512 2.58745 1.74897
head 5.76438 1.58962 0.0244741
rclavicle -3.97569e-015 -6.16232e-015
rhumerus 89.5211 -31.2703 -32.8941
rradius 27.6896
rwrist -3.61445
rhand -15.821 6.0606
rfingers 7.12502
rthumb 10.3728 -23.6636
lclavicle -3.97569e-015 -6.16232e-015
lhumerus -5.34052 -28.385 23.0648
lradius 63.0911
lwrist 28.6686
lhand -42.1404 -15.7423
lfingers 7.12502
lthumb -15.0304 13.6922
rfemur -33.3637 8.96194 19.7045
rtibia 19.84
rfoot 36.8804 2.0915
rtoes 18.5777
lfemur -23.8501 -0.381426 -23.0122
ltibia 39.1532
lfoot 2.60375 8.11409
ltoes 4.12367
926
root 8.00237 9.90978 12.1504 95.8752 2.06485 -2.36668
lowerback -1.34875 -0.354526 -3.23604
upperback -6.26885 -0.492514 1.1929
thorax -5.71094 -0.0470137 3.07174
lowerneck -10.9518 2.3556 4.55911
upperneck 14.1299 2.10585 1.63094
head 6.13028 1.37045 -0.0515977
rclavicle 1.59028e-015 -2.5345e-015
rhumerus 89.7948 -31.5779 -32.9329
rradius 27.2945
rwrist -2.92303
rhand -16.1817 5.86608
rfingers 7.12502
rthumb 10.0249 -23.8752
lclavicle 1.59028e-015 -2.5345e-015
lhumerus -6.9083 -29.6038 26.1069
lradius 63.2702
lwrist 27.1766
lhand -42.5429 -16.1451
lfingers 7.12502
lthumb -15.4181 13.2599
rfemur -33.0785 8.6511 19.9622
rtibia 20.0252
rfoot 36.7227 2.06169
rtoes 18.6142
lfemur -24.1711 -0.202345 -22.8885
ltibia 40.1325
lfoot 2.90836 7.11991
ltoes 4.52756
927
root 7.98058 9.90806 12.1481 96.0395 2.22564 -1.90476
lowerback -1.64186 0.0787496 -3.21425
upperback -6.16535 0.11065 1.1005
thorax -5.47948 0.250762 2.94008
lowerneck -11.7669 1.96302 4.741
upperneck 15.0752 1.50506 1.44998
head 6.56701 1.09933 -0.17771
rclavicle 1.0138e-014 -4.05024e-015
rhumerus 89.4471 -32.2022 -32.1948
rradius 27.0618
rwrist -2.50819
rhand -16.4665 5.53231
rfingers 7.12502
rthumb 9.75014 -24.222
lclavicle 1.0138e-014 -4.05024e-015
lhumerus -8.27507 -30.8855 29.2029
lradius 63.2005
lwrist 25.7642
lhand -43.0414 -16.444
lfingers 7.12502
lthumb -15.8983 12.9234
rfemur -32.7881 8.48947 20.1877
rtibia 20.3536
rfoot 36.594 2.16015
rtoes 18.6607
lfemur -24.6452 -0.108399 -22.7131
ltibia 40.9981
lfoot 3.08495 6.28162
ltoes 4.84481
928
root 7.95825 9.9053 12.1415 96.2254 2.39951 -1.45609
lowerback -1.94697 0.575302 -3.23955
upperback -6.10046 0.800048 1.0059
thorax -5.28789 0.59666 2.83555
lowerneck -12.5249 1.52181 4.98014
upperneck 16.0483 0.833723 1.2382
head 7.00411 0.798365 -0.338358
rclavicle -4.37326e-015 3.47873e-015
rhumerus 88.5815 -32.9748 -30.8445
rradius 26.9631
rwrist -2.35674
rhand -16.7179 5.09416
rfingers 7.12502
rthumb 9.5075 -24.6714
lclavicle -4.37326e-015 3.47873e-015
lhumerus -9.60039 -32.2725 32.3591
lradius 62.9275
lwrist 24.5733
lhand -43.6289 -16.6964
lfingers 7.12502
lthumb -16.4639 12.625
rfemur -32.4844 8.48368 20.3749
rtibia 20.8233
rfoot 36.5166 2.37988
rtoes 18.7301
lfemur -25.2498 -0.0882017 -22.4964
ltibia 41.7133
lfoot 3.11388 5.6629
ltoes 5.10512
929
root 7.93559 9.90175 12.1308 96.4204 2.57852 -1.02049
lowerback -2.22234 1.06702 -3.25894
upperback -6.08304 1.48213 0.913586
thorax -5.16177 0.940953 2.73495
lowerneck -13.1173 1.09642 5.20897
upperneck 16.8971 0.196449 1.02707
head 7.37342 0.513048 -0.503246
rclavicle 1.31198e-014 1.05356e-014
rhumerus 87.5584 -33.6786 -29.3545
rradius 26.9081
rwrist -2.3118
rhand -16.9768 4.62051
rfingers 7.12502
rthumb 9.25777 -25.1562
lclavicle 1.31198e-014 1.05356e-014
lhumerus -11.1233 -33.6925 35.5737
lradius 62.4957
lwrist 23.7091
lhand -44.2823 -16.9701
lfingers 7.12502
lthumb -17.0929 12.298
rfemur -32.1482 8.5968 20.5363
rtibia 21.4196
rfoot 36.5115 2.71197
rtoes 18.8771
lfemur -25.9627 -0.133652 -22.249
ltibia 42.2565
lfoot 3.01486 5.32352
ltoes 5.41842
